<svg id="visual" viewBox="0 0 900 600" width="900" height="600" xmlns="http://www.w3.org/2000/svg" xmlns:xlink="http://www.w3.org/1999/xlink" version="1.1"><path d="M573 600L593.8 580C614.7 560 656.3 520 656.3 480C656.3 440 614.7 400 610.2 360C605.7 320 638.3 280 660 240C681.7 200 692.3 160 693.7 120C695 80 687 40 683 20L679 0L900 0L900 20C900 40 900 80 900 120C900 160 900 200 900 240C900 280 900 320 900 360C900 400 900 440 900 480C900 520 900 560 900 580L900 600Z" fill="#08395a" stroke-linecap="round" stroke-linejoin="miter"></path></svg>